<?xml version="1.0" encoding="utf-8"?>
<!-- Generator: Adobe Illustrator 18.1.1, SVG Export Plug-In . SVG Version: 6.00 Build 0)  -->
<svg version="1.1" id="Layer_1" xmlns="http://www.w3.org/2000/svg" xmlns:xlink="http://www.w3.org/1999/xlink" x="0px" y="0px"
	 viewBox="0 0 300 109.8" enable-background="new 0 0 300 109.8" xml:space="preserve">
<g>
	<g>
		<path fill="#FFFFFF" d="M18.2,0.4C17.5,2,17.1,3.6,17,5.2c-0.1,1.6-0.2,2.8-0.2,3.6v89c0,3.1,0.1,5.6,0.2,7.6
			c0.2,1.9,0.4,3.5,0.7,4.8H0.6c0.2-0.9,0.3-2.1,0.4-3.8c0-1.6,0.1-4,0.1-7.1V10.8c0-2.8-0.1-5-0.2-6.5C0.7,2.7,0.4,1.4,0,0.4H18.2z
			 M60,5.1c6.9,4.3,10.3,10.2,10.3,17.7c0,8.3-3.1,15-9.2,20.1c-4.2,3.5-9.5,5.8-15.8,7c5-5.6,7.6-14.3,7.6-26
			c0-5.4-0.5-10-1.5-13.7c-1-3.7-2.2-6.7-3.8-9C52.8,1.8,56.9,3.2,60,5.1z"/>
		<path fill="#FFFFFF" d="M113.1,0.3c-0.8,1.6-1.2,3.1-1.3,4.7c-0.1,1.6-0.1,2.8-0.1,3.6v89.1c0,3.1,0.1,5.6,0.2,7.6
			c0.1,1.9,0.4,3.5,0.7,4.8H95.2c0.2-0.9,0.3-2.2,0.4-3.9c0.1-1.7,0.1-4.1,0.1-7.2V10.8c0-2.8-0.1-5-0.3-6.6
			c-0.2-1.6-0.4-2.9-0.7-3.9H113.1z M172.7,100.7c1.5,2.1,2.9,3.9,4,5.3c1.1,1.4,2.1,2.6,3,3.7h-2.6c-1.3-0.1-2.4-0.1-3.5-0.1
			c-1.1,0-2.1,0-3.1,0c-1,0-1.8,0-2.5,0c-0.7,0-1.3,0.1-1.9,0.1h-6.1c0-0.5-0.1-1-0.2-1.5c-0.1-0.5-0.6-1.3-1.2-2.3
			c-0.7-1.1-1.7-2.6-3.1-4.7c-1.4-2-3.4-4.8-5.9-8.4L124,57l-0.3-0.3c-1.3-1.3-2-2.1-2.3-2.5c0.8-0.8,1.8-1.8,3.1-3.1
			c1.3-1.3,3.1-3.2,5.3-5.6c1.4,1.7,3.3,4.3,5.8,7.6c2.5,3.3,5.8,7.6,9.7,12.7c3.3,4.1,7.2,9,11.8,14.8
			C161.7,86.5,166.9,93.2,172.7,100.7z M175.3,0v0.1l-11.6,11.6c-1.9-2.5-4.1-4.8-6.5-6.7c-2.4-1.9-4.9-3.6-7.5-5.1H175.3z"/>
		<path fill="#FFFFFF" d="M224.3,0c-0.7,1.7-1.1,3.3-1.2,4.9c-0.1,1.6-0.1,2.8-0.1,3.6v89.3c0,3.1,0.1,5.6,0.2,7.6
			c0.1,1.9,0.4,3.5,0.7,4.8h-17.3c0.2-0.9,0.3-2.2,0.4-3.9c0.1-1.7,0.1-4.1,0.1-7.2V10.5c0-2.8-0.1-5-0.3-6.6
			c-0.2-1.6-0.4-2.9-0.7-3.9H224.3z M280.9,12.4c12.7,9.8,19,23.7,19,41.9c0,12.2-2.8,22.7-8.3,31.4c-5.6,9.2-13.9,15.9-24.7,20.1
			c-0.2,0.1-0.3,0.1-0.4,0.1s-0.2,0.1-0.4,0.1c4.2-4.7,7.6-11.1,10.2-19.4c2.6-8.3,3.9-19.1,3.9-32.3c0-20.3-3.1-35.2-9.4-44.9
			c-0.8-1.3-1.7-2.6-2.9-3.9C273,7.1,277.3,9.5,280.9,12.4z"/>
	</g>
</g>
</svg>
