<?xml version="1.0" encoding="utf-8"?>
<!-- Generator: Adobe Illustrator 18.1.1, SVG Export Plug-In . SVG Version: 6.00 Build 0)  -->
<svg version="1.1" id="Layer_1" xmlns="http://www.w3.org/2000/svg" xmlns:xlink="http://www.w3.org/1999/xlink" x="0px" y="0px"
	 viewBox="0 95 300 110" enable-background="new 0 95 300 110" xml:space="preserve">
<g>
	<g>
		<path d="M18.2,95.5c-0.7,1.6-1.1,3.2-1.2,4.8c-0.1,1.6-0.2,2.8-0.2,3.6v89c0,3.1,0.1,5.6,0.2,7.6c0.2,1.9,0.4,3.5,0.7,4.8H0.6
			c0.2-0.9,0.3-2.1,0.4-3.8c0-1.6,0.1-4,0.1-7.1v-88.5c0-2.8-0.1-5-0.2-6.5c-0.2-1.6-0.5-2.9-0.9-3.9C0,95.5,18.2,95.5,18.2,95.5z
			 M60,100.2c6.9,4.3,10.3,10.2,10.3,17.7c0,8.3-3.1,15-9.2,20.1c-4.2,3.5-9.5,5.8-15.8,7c5-5.6,7.6-14.3,7.6-26
			c0-5.4-0.5-10-1.5-13.7s-2.2-6.7-3.8-9C52.8,96.9,56.9,98.3,60,100.2z"/>
		<path d="M113.1,95.4c-0.8,1.6-1.2,3.1-1.3,4.7c-0.1,1.6-0.1,2.8-0.1,3.6v89.1c0,3.1,0.1,5.6,0.2,7.6c0.1,1.9,0.4,3.5,0.7,4.8H95.2
			c0.2-0.9,0.3-2.2,0.4-3.9s0.1-4.1,0.1-7.2v-88.2c0-2.8-0.1-5-0.3-6.6c-0.2-1.6-0.4-2.9-0.7-3.9C94.7,95.4,113.1,95.4,113.1,95.4z
			 M172.7,195.8c1.5,2.1,2.9,3.9,4,5.3c1.1,1.4,2.1,2.6,3,3.7h-2.6c-1.3-0.1-2.4-0.1-3.5-0.1s-2.1,0-3.1,0s-1.8,0-2.5,0
			s-1.3,0.1-1.9,0.1H160c0-0.5-0.1-1-0.2-1.5c-0.1-0.5-0.6-1.3-1.2-2.3c-0.7-1.1-1.7-2.6-3.1-4.7c-1.4-2-3.4-4.8-5.9-8.4L124,152.1
			l-0.3-0.3c-1.3-1.3-2-2.1-2.3-2.5c0.8-0.8,1.8-1.8,3.1-3.1c1.3-1.3,3.1-3.2,5.3-5.6c1.4,1.7,3.3,4.3,5.8,7.6s5.8,7.6,9.7,12.7
			c3.3,4.1,7.2,9,11.8,14.8C161.7,181.6,166.9,188.3,172.7,195.8z M175.3,95.1L175.3,95.1l-11.6,11.7c-1.9-2.5-4.1-4.8-6.5-6.7
			s-4.9-3.6-7.5-5.1L175.3,95.1L175.3,95.1z"/>
		<path d="M224.3,95.1c-0.7,1.7-1.1,3.3-1.2,4.9c-0.1,1.6-0.1,2.8-0.1,3.6v89.3c0,3.1,0.1,5.6,0.2,7.6c0.1,1.9,0.4,3.5,0.7,4.8
			h-17.3c0.2-0.9,0.3-2.2,0.4-3.9c0.1-1.7,0.1-4.1,0.1-7.2v-88.6c0-2.8-0.1-5-0.3-6.6s-0.4-2.9-0.7-3.9L224.3,95.1L224.3,95.1z
			 M280.9,107.5c12.7,9.8,19,23.7,19,41.9c0,12.2-2.8,22.7-8.3,31.4c-5.6,9.2-13.9,15.9-24.7,20.1c-0.2,0.1-0.3,0.1-0.4,0.1
			s-0.2,0.1-0.4,0.1c4.2-4.7,7.6-11.1,10.2-19.4s3.9-19.1,3.9-32.3c0-20.3-3.1-35.2-9.4-44.9c-0.8-1.3-1.7-2.6-2.9-3.9
			C273,102.2,277.3,104.6,280.9,107.5z"/>
	</g>
</g>
</svg>
